
<svg width="120" height="120" viewBox="0 0 512 512"  xmlns="http://www.w3.org/2000/svg">
<g>
    <path d="M502.2,119.9l-98.1-99.4c-6.1-6.2-14.6-10-23.9-10H380h0h-0.1c-9.4,0-17.9,3.8-24,10.1L75.5,305.4
		c-6,6.1-9.7,14.5-9.7,23.7c0,9.3,3.8,17.8,9.9,23.9l15.5,15.5L0,460.8v40.7h112.7l55.7-55.7l13.2,13.2c6.1,6.1,14.5,9.9,23.9,9.9
		c9.7,0,18.5-4.1,24.7-10.7l0,0l272.6-291.5c5.7-6,9.1-14.2,9.1-23.1C512,134.3,508.3,125.9,502.2,119.9L502.2,119.9z M98.7,467.8
		H40.6L89.8,418l29.3,29.3L98.7,467.8z M205.5,435.1L168.5,398L143,423.5L113.5,394l25.3-25.6l-39.2-39.3l51-51.8l104.6,104.6
		L205.5,435.1z M278.3,357.3l-104-104L380,44.2l98.1,99.4L278.3,357.3z"/>
</g>
</svg>
