<svg class="off" width="110" height="180" viewBox="0 0 84 180"   xmlns="http://www.w3.org/2000/svg">

<!-- #6c6969 -->
    <defs>
        <filter id="f1">
        <feDropShadow dx="0" dy="0" stdDeviation="0.6" flood-opacity="0.8"/>
        </filter>
    </defs>

     <defs>
    <radialGradient id="grad1" cx="50%" cy="50%" r="50%" fx="50%" fy="50%">
      <stop offset="25%" stop-color="#C0C0C0" />
      <stop offset="100%" stop-color="#7a7979" />
    </radialGradient>
  </defs>

    <rect width="116" height="175" x="-15" y="0" rx="3" ry="3" fill="#037503" />

    <g fill-opacity="0.5" fill="black">
        <polygon points="0,2 84,2 74,10 10,10" />
        <polygon points="-1,3 -1,73 9,63 9,11"/>
        <polygon points="-1,76 -1,153 9,143 9,86"/>
        <polygon points="0,74.5 9.5,65 74,65 84,74.5 74,85 10,85"/>
        <polygon points="75,11 75,64 85,73 85,3"/>
        <polygon points="75,86 75,143 85,153 85,76"/>
        <polygon points="10,144 74,144 84,154 0,154"/>
    </g>
    <g stroke-width="2" stroke="#025f02" fill="none" filter="url(#f1)">
        <path d="M65 10 v10 H75  " stroke-linejoin="round" />
        <path d="M85 20 H95 V155 L82 170 " stroke-linejoin="round" />
        <path d="M85 48 H91 V155 L72 170 " stroke-linejoin="round" />
        <path d="M85 145 H87 V155 L62 170 " stroke-linejoin="round" />

        <path d="M-1 65 H-8 V155 L0 170 " stroke-linejoin="round" />
        <path d="M-1 145 H-4 V155 L10 170 " stroke-linejoin="round" />
        <path d="M15 85 H15 V144  " stroke-linejoin="round" />
        <path d="M15 154  V165 L20 170 " stroke-linejoin="round" />
        <path d="M40 154  V170 L40  " stroke-linejoin="round" />
    </g>
    <g fill="url(#grad1)">
    <circle r="3" cx="0" cy="170"/>
    <circle r="3" cx="10" cy="170"/>
    <circle r="3" cx="20" cy="170"/>
    <circle r="3" cx="40" cy="170"/>
    <circle r="3" cx="62" cy="170"/>
    <circle r="3" cx="72" cy="170"/>
    <circle r="3" cx="82" cy="170"/>
    </g>
</svg>